<?xml version="1.0" standalone="no"?>
<!DOCTYPE svg PUBLIC "-//W3C//DTD SVG 20010904//EN"
 "http://www.w3.org/TR/2001/REC-SVG-20010904/DTD/svg10.dtd">
<svg version="1.0" xmlns="http://www.w3.org/2000/svg"
 width="1000.000000pt" height="296.000000pt" viewBox="0 0 1000.000000 296.000000"
 preserveAspectRatio="xMidYMid meet">

<g transform="translate(0.000000,296.000000) scale(0.100000,-0.100000)"
fill="#000000" stroke="none">
<path d="M6650 2260 l0 -170 -115 0 -115 0 0 -90 0 -90 115 0 115 0 0 -319 c0
-202 4 -330 11 -348 5 -15 22 -41 37 -56 50 -54 66 -57 262 -57 l180 0 0 85 0
85 -155 0 -155 0 0 305 0 305 155 0 155 0 0 90 0 90 -155 0 -155 0 0 170 0
170 -90 0 -90 0 0 -170z"/>
<path d="M2926 2076 c-50 -19 -94 -62 -107 -106 -6 -22 -9 -164 -7 -386 l3
-351 29 -37 c49 -65 56 -66 436 -66 l340 0 0 85 0 85 -317 2 -318 3 0 105 0
105 318 3 317 2 0 213 c0 247 -8 275 -81 324 l-42 28 -266 2 c-208 2 -274 0
-305 -11z m514 -276 l0 -110 -227 2 -228 3 -3 108 -3 107 231 0 230 0 0 -110z"/>
<path d="M3810 2082 c0 -4 85 -219 188 -477 l188 -470 95 -3 95 -3 179 448
c98 246 185 463 192 481 l13 32 -92 0 -93 0 -144 -370 c-80 -204 -148 -367
-152 -363 -4 5 -69 166 -144 358 -76 193 -139 356 -142 363 -6 13 -183 18
-183 4z"/>
<path d="M4957 2083 c-4 -3 -7 -219 -7 -480 l0 -473 90 0 90 0 0 480 0 480
-83 0 c-46 0 -87 -3 -90 -7z"/>
<path d="M5537 2075 c-22 -7 -50 -24 -64 -37 -45 -41 -53 -76 -53 -235 0 -135
2 -152 23 -187 42 -76 60 -80 332 -86 l240 -5 0 -110 0 -110 -297 -3 -298 -2
0 -86 0 -85 334 3 c320 3 336 4 362 24 65 48 69 60 72 243 4 193 -3 221 -64
267 l-37 29 -244 3 -243 3 0 104 0 105 280 0 280 0 0 90 0 90 -292 0 c-222 -1
-302 -4 -331 -15z"/>
<path d="M7568 2080 c-46 -14 -90 -51 -109 -94 -17 -37 -19 -71 -19 -380 0
-325 1 -342 21 -383 14 -29 35 -52 63 -68 l43 -25 341 0 342 0 0 85 0 85 -315
0 -315 0 0 110 0 110 315 0 315 0 0 215 c0 160 -4 224 -14 248 -17 42 -66 83
-114 97 -44 12 -514 12 -554 0z m510 -277 l-3 -108 -227 -3 -228 -2 0 110 0
110 230 0 231 0 -3 -107z"/>
<path d="M8550 1320 l0 -770 90 0 90 0 0 290 0 290 273 0 c263 0 273 1 311 23
25 14 48 39 63 66 23 44 23 47 23 385 0 309 -2 345 -19 381 -41 90 -83 104
-311 105 -96 0 -192 -5 -213 -11 -46 -13 -105 -62 -115 -98 -5 -20 -8 -12 -12
39 l-5 65 -87 3 -88 3 0 -771z m670 285 l0 -305 -245 0 -245 0 0 305 0 305
245 0 245 0 0 -305z"/>
</g>
</svg>
